<svg width="24" height="24" viewBox="0 0 24 24" fill="none" xmlns="http://www.w3.org/2000/svg">
<path fill-rule="evenodd" clip-rule="evenodd" d="M8.88592 3.36299C11.8279 0.545994 16.5859 0.545994 19.5289 3.36299C22.4899 6.19699 22.4899 10.807 19.5289 13.642L11.5809 21.25C9.49093 23.25 6.11493 23.25 4.02493 21.25C3.5255 20.7797 3.12755 20.2123 2.85554 19.5825C2.58353 18.9527 2.44321 18.274 2.44321 17.588C2.44321 16.902 2.58353 16.2233 2.85554 15.5935C3.12755 14.9637 3.5255 14.3963 4.02493 13.926L11.8589 6.42799C12.4628 5.85745 13.2621 5.53958 14.0929 5.53958C14.9237 5.53958 15.723 5.85745 16.3269 6.42799C16.6246 6.70846 16.8618 7.04684 17.0239 7.42233C17.186 7.79782 17.2697 8.2025 17.2697 8.61149C17.2697 9.02049 17.186 9.42517 17.0239 9.80066C16.8618 10.1761 16.6246 10.5145 16.3269 10.795L8.43693 18.349C8.36575 18.4172 8.28184 18.4706 8.19 18.5063C8.09816 18.5421 8.00019 18.5594 7.90166 18.5572C7.80314 18.5551 7.706 18.5336 7.6158 18.4939C7.52559 18.4542 7.44408 18.3972 7.37593 18.326C7.30777 18.2548 7.2543 18.1709 7.21857 18.0791C7.18284 17.9872 7.16555 17.8893 7.16769 17.7907C7.16982 17.6922 7.19134 17.5951 7.23102 17.5049C7.27069 17.4147 7.32775 17.3331 7.39893 17.265L15.2889 9.71199C15.44 9.57134 15.5605 9.40109 15.6428 9.21184C15.7252 9.02258 15.7677 8.8184 15.7677 8.61199C15.7677 8.40559 15.7252 8.2014 15.6428 8.01215C15.5605 7.8229 15.44 7.65265 15.2889 7.51199C14.9643 7.2088 14.5366 7.04016 14.0924 7.04016C13.6482 7.04016 13.2206 7.2088 12.8959 7.51199L5.06192 15.01C4.70889 15.3402 4.42744 15.7394 4.23502 16.1829C4.0426 16.6263 3.94332 17.1046 3.94332 17.588C3.94332 18.0714 4.0426 18.5497 4.23502 18.9931C4.42744 19.4366 4.70889 19.8358 5.06192 20.166C6.57193 21.611 9.03393 21.611 10.5439 20.166L18.4919 12.558C20.8359 10.314 20.8359 6.68999 18.4919 4.44599C16.1289 2.18499 12.2859 2.18499 9.92193 4.44599L3.51893 10.576C3.37531 10.7138 3.18284 10.7889 2.98387 10.7847C2.78489 10.7806 2.59571 10.6976 2.45793 10.554C2.32015 10.4104 2.24506 10.2179 2.24918 10.0189C2.25331 9.81996 2.33631 9.63077 2.47993 9.49299L8.88592 3.36299Z" fill="white"/>
</svg>
