<svg width="24" height="24" viewBox="0 0 24 24" fill="none" xmlns="http://www.w3.org/2000/svg">
<path fill-rule="evenodd" clip-rule="evenodd" d="M12.0001 4.41667C10.5754 4.41699 9.17968 4.81861 7.97274 5.57553C6.7658 6.33244 5.79649 7.41404 5.17585 8.6964C4.55522 9.97875 4.30837 11.41 4.46358 12.8262C4.61879 14.2423 5.16978 15.5862 6.05344 16.7036C6.93709 17.8211 8.11766 18.6671 9.4599 19.1446C10.8021 19.6222 12.2517 19.7119 13.6426 19.4037C15.0335 19.0954 16.3095 18.4016 17.3243 17.4017C18.3391 16.4018 19.0517 15.1362 19.3804 13.75H13.1668C12.7026 13.75 12.2575 13.5656 11.9293 13.2374C11.6011 12.9092 11.4168 12.4641 11.4168 12C11.4168 11.5359 11.6011 11.0908 11.9293 10.7626C12.2575 10.4344 12.7026 10.25 13.1668 10.25H21.3334C21.7975 10.25 22.2427 10.4344 22.5709 10.7626C22.899 11.0908 23.0834 11.5359 23.0834 12C23.0834 14.5629 22.1952 17.0466 20.57 19.0282C18.9448 21.0099 16.6831 22.3671 14.1698 22.8689C11.6565 23.3706 9.04702 22.9858 6.78551 21.78C4.52401 20.5742 2.75029 18.6219 1.76626 16.2555C0.782236 13.889 0.648733 11.2547 1.38848 8.80089C2.12823 6.3471 3.6955 4.2255 5.82351 2.79725C7.95152 1.369 10.5087 0.722365 13.0599 0.967428C15.611 1.21249 17.9984 2.3341 19.8156 4.14134C19.9785 4.30343 20.1079 4.49603 20.1964 4.70814C20.2849 4.92025 20.3308 5.14772 20.3314 5.37755C20.332 5.60738 20.2873 5.83508 20.1999 6.04765C20.1125 6.26021 19.9841 6.45348 19.822 6.61642C19.6599 6.77936 19.4673 6.90877 19.2552 6.99727C19.0431 7.08578 18.8156 7.13164 18.5858 7.13223C18.1216 7.13344 17.676 6.9502 17.3469 6.62283C15.9275 5.20776 14.0043 4.41422 12.0001 4.41667Z" fill="white"/>
</svg>
