<svg width="30" height="30" viewBox="0 0 30 30" fill="none" xmlns="http://www.w3.org/2000/svg">
<path d="M23.5552 16.3101C25.0652 15.5843 25.0652 13.4468 23.5552 12.7222L8.19016 5.34199C6.65516 4.60409 5.11766 5.93836 5.33391 7.42264L6.00891 12.0545C6.06115 12.4265 6.22136 12.7765 6.47095 13.0638C6.72054 13.3512 7.04925 13.5641 7.41891 13.6779C7.61891 13.7384 8.10641 13.8388 8.68391 13.9525C9.47891 14.1097 14.1714 14.5162 14.1714 14.5162C14.1714 14.5162 9.47891 14.9238 8.68391 15.0799C8.10766 15.1936 7.62016 15.294 7.41891 15.3545C7.04925 15.4683 6.72054 15.6812 6.47095 15.9686C6.22136 16.2559 6.06115 16.6059 6.00891 16.9779L5.33391 21.6109C5.11766 23.094 6.65516 24.4283 8.19016 23.6916L23.5552 16.3101Z" fill="#58C1E8"/>
</svg>
