<svg width="20" height="20" viewBox="0 0 20 20" fill="none" xmlns="http://www.w3.org/2000/svg">
<g clip-path="url(#clip0_302_6)">
<path d="M11.0779 0C11.3719 0 11.6349 0.183 11.7339 0.457L12.4399 2.414C12.6925 2.47667 12.9105 2.54067 13.0939 2.606C13.2939 2.67733 13.5539 2.78733 13.8739 2.936L15.5179 2.066C15.652 1.99458 15.8057 1.96874 15.9558 1.99237C16.1059 2.016 16.2442 2.08783 16.3499 2.197L17.7959 3.692C17.9879 3.891 18.0419 4.182 17.9339 4.436L17.1629 6.243C17.2902 6.47767 17.3929 6.679 17.4709 6.847C17.5549 7.029 17.6589 7.28233 17.7829 7.607L19.5799 8.377C19.8499 8.492 20.0169 8.762 19.9989 9.051L19.8669 11.126C19.8579 11.2608 19.8095 11.39 19.7277 11.4975C19.6459 11.6051 19.5344 11.6863 19.4069 11.731L17.7049 12.336C17.6562 12.5707 17.6049 12.7727 17.5509 12.942C17.4635 13.2044 17.3641 13.4627 17.2529 13.716L18.1079 15.606C18.1687 15.7387 18.1852 15.8875 18.155 16.0303C18.1247 16.1731 18.0493 16.3024 17.9399 16.399L16.3139 17.851C16.207 17.9466 16.0733 18.0071 15.931 18.0243C15.7886 18.0414 15.6444 18.0145 15.5179 17.947L13.8419 17.059C13.5799 17.1984 13.3094 17.321 13.0319 17.426L12.2999 17.7L11.6499 19.5C11.6012 19.6315 11.5142 19.7454 11.4001 19.8269C11.286 19.9084 11.1501 19.9537 11.0099 19.957L9.10988 20C8.96593 20.0033 8.82446 19.9622 8.70474 19.8822C8.58502 19.8022 8.49288 19.6873 8.44088 19.553L7.67488 17.526C7.41359 17.4365 7.15483 17.3398 6.89888 17.236C6.6896 17.1454 6.48348 17.0477 6.28088 16.943L4.38088 17.755C4.25573 17.8087 4.11765 17.8247 3.98355 17.801C3.84945 17.7774 3.72515 17.7152 3.62588 17.622L2.21988 16.303C2.11481 16.2055 2.04324 16.0773 2.01541 15.9366C1.98757 15.796 2.00489 15.6502 2.06488 15.52L2.88188 13.74C2.77361 13.529 2.67288 13.3142 2.57988 13.096C2.47155 12.8288 2.3715 12.5584 2.27988 12.285L0.489879 11.74C0.34438 11.696 0.217474 11.6052 0.128869 11.4817C0.0402643 11.3582 -0.00507958 11.2089 -0.000120812 11.057L0.0698792 9.136C0.0750793 9.01072 0.114321 8.88922 0.183387 8.78456C0.252453 8.6799 0.348733 8.59605 0.461879 8.542L2.33988 7.64C2.42655 7.32133 2.50321 7.072 2.56988 6.892C2.66423 6.65025 2.769 6.4127 2.88388 6.18L2.06988 4.46C2.00764 4.32948 1.98862 4.18252 2.0156 4.04045C2.04257 3.89839 2.11413 3.76862 2.21988 3.67L3.62388 2.344C3.72217 2.25095 3.84533 2.1884 3.97844 2.1639C4.11155 2.13941 4.24891 2.15403 4.37388 2.206L6.27188 2.99C6.48121 2.85067 6.67188 2.736 6.84388 2.646C7.04855 2.538 7.32321 2.42267 7.66788 2.3L8.32788 0.459C8.37717 0.324592 8.46648 0.208527 8.58378 0.126454C8.70108 0.0443815 8.84072 0.000246609 8.98388 0L11.0779 0ZM10.0239 7.019C8.35688 7.019 7.00588 8.354 7.00588 10.002C7.00588 11.65 8.35688 12.986 10.0239 12.986C11.6909 12.986 13.0409 11.65 13.0409 10.002C13.0409 8.354 11.6909 7.019 10.0239 7.019Z" fill="#807F7F"/>
</g>
<defs>
<clipPath id="clip0_302_6">
<rect width="20" height="20" fill="white"/>
</clipPath>
</defs>
</svg>
