<svg width="11" height="11" viewBox="0 0 11 11" fill="none" xmlns="http://www.w3.org/2000/svg">
<mask id="path-1-outside-1_0_1" maskUnits="userSpaceOnUse" x="0" y="0" width="11" height="11" fill="black">
<rect fill="white" width="11" height="11"/>
<path d="M1.05682 1.27273H2.31818L5.28409 8.51705H5.38636L8.35227 1.27273H9.61364V10H8.625V3.36932H8.53977L5.8125 10H4.85795L2.13068 3.36932H2.04545V10H1.05682V1.27273Z"/>
</mask>
<path d="M1.05682 1.27273H2.31818L5.28409 8.51705H5.38636L8.35227 1.27273H9.61364V10H8.625V3.36932H8.53977L5.8125 10H4.85795L2.13068 3.36932H2.04545V10H1.05682V1.27273Z" fill="#333333"/>
<path d="M1.05682 1.27273V0.572727H0.356818V1.27273H1.05682ZM2.31818 1.27273L2.96599 1.00751L2.78799 0.572727H2.31818V1.27273ZM5.28409 8.51705L4.63628 8.78227L4.81428 9.21705H5.28409V8.51705ZM5.38636 8.51705V9.21705H5.85617L6.03417 8.78227L5.38636 8.51705ZM8.35227 1.27273V0.572727H7.88247L7.70446 1.00751L8.35227 1.27273ZM9.61364 1.27273H10.3136V0.572727H9.61364V1.27273ZM9.61364 10V10.7H10.3136V10H9.61364ZM8.625 10H7.925V10.7H8.625V10ZM8.625 3.36932H9.325V2.66932H8.625V3.36932ZM8.53977 3.36932V2.66932H8.07079L7.89239 3.10304L8.53977 3.36932ZM5.8125 10V10.7H6.28148L6.45988 10.2663L5.8125 10ZM4.85795 10L4.21058 10.2663L4.38897 10.7H4.85795V10ZM2.13068 3.36932L2.77806 3.10304L2.59966 2.66932H2.13068V3.36932ZM2.04545 3.36932V2.66932H1.34545V3.36932H2.04545ZM2.04545 10V10.7H2.74545V10H2.04545ZM1.05682 10H0.356818V10.7H1.05682V10ZM1.05682 1.27273V1.97273H2.31818V1.27273V0.572727H1.05682V1.27273ZM2.31818 1.27273L1.67037 1.53795L4.63628 8.78227L5.28409 8.51705L5.9319 8.25182L2.96599 1.00751L2.31818 1.27273ZM5.28409 8.51705V9.21705H5.38636V8.51705V7.81705H5.28409V8.51705ZM5.38636 8.51705L6.03417 8.78227L9.00008 1.53795L8.35227 1.27273L7.70446 1.00751L4.73855 8.25182L5.38636 8.51705ZM8.35227 1.27273V1.97273H9.61364V1.27273V0.572727H8.35227V1.27273ZM9.61364 1.27273H8.91364V10H9.61364H10.3136V1.27273H9.61364ZM9.61364 10V9.3H8.625V10V10.7H9.61364V10ZM8.625 10H9.325V3.36932H8.625H7.925V10H8.625ZM8.625 3.36932V2.66932H8.53977V3.36932V4.06932H8.625V3.36932ZM8.53977 3.36932L7.89239 3.10304L5.16512 9.73373L5.8125 10L6.45988 10.2663L9.18715 3.63559L8.53977 3.36932ZM5.8125 10V9.3H4.85795V10V10.7H5.8125V10ZM4.85795 10L5.50533 9.73373L2.77806 3.10304L2.13068 3.36932L1.4833 3.63559L4.21058 10.2663L4.85795 10ZM2.13068 3.36932V2.66932H2.04545V3.36932V4.06932H2.13068V3.36932ZM2.04545 3.36932H1.34545V10H2.04545H2.74545V3.36932H2.04545ZM2.04545 10V9.3H1.05682V10V10.7H2.04545V10ZM1.05682 10H1.75682V1.27273H1.05682H0.356818V10H1.05682Z" fill="black" mask="url(#path-1-outside-1_0_1)"/>
<mask id="path-3-outside-2_0_1" maskUnits="userSpaceOnUse" x="0.600098" y="3" width="9" height="8" fill="black">
<rect fill="white" x="0.600098" y="3" width="9" height="8"/>
<path d="M2.05464 8.32955L4.73078 6.76136L2.05464 5.19318L2.05464 4.03409L5.32737 6.14773L8.6001 4.03409V5.19318L6.06032 6.76136L8.6001 8.32955L8.6001 9.48864L5.32737 7.40909L2.05464 9.48864L2.05464 8.32955Z"/>
</mask>
<path d="M2.05464 8.32955L4.73078 6.76136L2.05464 5.19318L2.05464 4.03409L5.32737 6.14773L8.6001 4.03409V5.19318L6.06032 6.76136L8.6001 8.32955L8.6001 9.48864L5.32737 7.40909L2.05464 9.48864L2.05464 8.32955Z" fill="#58C1E8"/>
<path d="M2.05464 8.32955L1.80185 7.89816L1.55464 8.04302V8.32955H2.05464ZM4.73078 6.76136L4.98357 7.19275L5.71975 6.76136L4.98357 6.32997L4.73078 6.76136ZM2.05464 5.19318H1.55464V5.47971L1.80185 5.62457L2.05464 5.19318ZM2.05464 4.03409L2.32591 3.61407L1.55464 3.11596V4.03409H2.05464ZM5.32737 6.14773L5.05611 6.56775L5.32737 6.74294L5.59863 6.56775L5.32737 6.14773ZM8.6001 4.03409H9.1001V3.11596L8.32883 3.61407L8.6001 4.03409ZM8.6001 5.19318L8.86278 5.61862L9.1001 5.47209L9.1001 5.19318H8.6001ZM6.06032 6.76136L5.79764 6.33593L5.10862 6.76136L5.79764 7.1868L6.06032 6.76136ZM8.6001 8.32955H9.1001V8.05064L8.86278 7.90411L8.6001 8.32955ZM8.6001 9.48864L8.33194 9.91065L9.1001 10.3987V9.48864H8.6001ZM5.32737 7.40909L5.59552 6.98708L5.32737 6.81669L5.05922 6.98708L5.32737 7.40909ZM2.05464 9.48864H1.55464V10.3987L2.3228 9.91065L2.05464 9.48864ZM2.05464 8.32955L2.30743 8.76094L4.98357 7.19275L4.73078 6.76136L4.47799 6.32997L1.80185 7.89816L2.05464 8.32955ZM4.73078 6.76136L4.98357 6.32997L2.30743 4.76179L2.05464 5.19318L1.80185 5.62457L4.47799 7.19275L4.73078 6.76136ZM2.05464 5.19318L2.55464 5.19318L2.55464 4.03409L2.05464 4.03409H1.55464L1.55464 5.19318H2.05464ZM2.05464 4.03409L1.78338 4.45411L5.05611 6.56775L5.32737 6.14773L5.59863 5.72771L2.32591 3.61407L2.05464 4.03409ZM5.32737 6.14773L5.59863 6.56775L8.87136 4.45411L8.6001 4.03409L8.32883 3.61407L5.05611 5.72771L5.32737 6.14773ZM8.6001 4.03409L8.1001 4.03409V5.19318L8.6001 5.19318H9.1001V4.03409H8.6001ZM8.6001 5.19318L8.33741 4.76775L5.79764 6.33593L6.06032 6.76136L6.32301 7.1868L8.86278 5.61862L8.6001 5.19318ZM6.06032 6.76136L5.79764 7.1868L8.33741 8.75498L8.6001 8.32955L8.86278 7.90411L6.32301 6.33593L6.06032 6.76136ZM8.6001 8.32955H8.1001L8.1001 9.48864H8.6001H9.1001L9.1001 8.32955H8.6001ZM8.6001 9.48864L8.86825 9.06662L5.59552 6.98708L5.32737 7.40909L5.05922 7.8311L8.33194 9.91065L8.6001 9.48864ZM5.32737 7.40909L5.05922 6.98708L1.78649 9.06662L2.05464 9.48864L2.3228 9.91065L5.59552 7.8311L5.32737 7.40909ZM2.05464 9.48864H2.55464L2.55464 8.32955H2.05464H1.55464L1.55464 9.48864H2.05464Z" fill="black" mask="url(#path-3-outside-2_0_1)"/>
</svg>
